<svg xmlns="http://www.w3.org/2000/svg" xmlns:xlink="http://www.w3.org/1999/xlink" version="1.1" x="0px" y="0px" viewBox="0 0 100 100" enable-background="new 0 0 100 100" xml:space="preserve"><g><path d="M84.1,19.7h-6.8v-3.4c0-2.3-1.8-4.1-4.1-4.1H56.7V7.9c0-1.1-0.9-2-2-2H46c-1.1,0-2,0.9-2,2v4.3H27.5   c-2.3,0-4.1,1.8-4.1,4.1v3.4h-6.8c-2.3,0-4.1,1.8-4.1,4.1v8.7c0,1.1,0.9,2,2,2H18V82c0,7.1,5.8,12.9,12.9,12.9h38.7   c7.1,0,12.9-5.8,12.9-12.9V34.6h3.8c1.1,0,2-0.9,2-2v-8.7C88.2,21.6,86.4,19.7,84.1,19.7z M48,9.9h4.6v2.3H48V9.9z M27.4,16.3   c0-0.1,0-0.1,0.1-0.1H46h8.6h18.6c0.1,0,0.1,0,0.1,0.1v3.4h-46V16.3z M78.4,82c0,4.9-4,8.9-8.9,8.9H30.9c-4.9,0-8.9-4-8.9-8.9V34.6   h56.4V82z M84.2,30.6h-3.8H20h-3.5v-6.7c0-0.1,0-0.1,0.1-0.1h8.8h50h8.8c0.1,0,0.1,0,0.1,0.1V30.6z"/><path d="M34,81.2c1.1,0,2-0.9,2-2V46c0-1.1-0.9-2-2-2s-2,0.9-2,2v33.2C32,80.3,32.9,81.2,34,81.2z"/><path d="M50.4,81.2c1.1,0,2-0.9,2-2V46c0-1.1-0.9-2-2-2c-1.1,0-2,0.9-2,2v33.2C48.4,80.3,49.2,81.2,50.4,81.2z"/><path d="M67.1,81.2c1.1,0,2-0.9,2-2V46c0-1.1-0.9-2-2-2s-2,0.9-2,2v33.2C65.1,80.3,66,81.2,67.1,81.2z"/></g></svg>
